<?xml version="1.0" encoding="utf-8"?>
<!-- Generator: Adobe Illustrator 25.0.0, SVG Export Plug-In . SVG Version: 6.00 Build 0)  -->
<svg version="1.1" xmlns="http://www.w3.org/2000/svg" xmlns:xlink="http://www.w3.org/1999/xlink" x="0px" y="0px"
	 viewBox="0 0 342.98 244.1" style="enable-background:new 0 0 342.98 244.1;" xml:space="preserve">
<style type="text/css">
	.st0{fill:#212459;}
	.st1{fill:#171B3D;}
	.st2{fill:#F4D158;}
	.st3{fill:#00599D;}
	.st4{fill:#00733A;}
	.st5{opacity:0.5;fill:#212459;}
	.st6{fill:#EC297B;}
	.st7{fill:#0071BC;}
	.st8{fill:#009245;}
	.st9{opacity:0.25;fill:#212459;}
	.st10{fill:#F2F2F2;}
	.st11{fill:#FFFFFF;}
	.st12{fill:none;}
	.st13{fill:#14151F;}
	.st14{clip-path:url(#SVGID_2_);}
	.st15{fill:#84827B;}
	.st16{clip-path:url(#SVGID_4_);}
</style>
<g id="Layer_2">
</g>
<g id="Layer_1">
	<g>
		<path class="st12" d="M41.92,56.72c1.16-1.79,1.93-3.72,2.32-5.79c0.39-2.07,0.29-4.21-0.29-6.41l0.02,0.04
			c-0.05-0.26-0.14-0.51-0.26-0.73c-0.12-0.22-0.24-0.41-0.37-0.55c-0.31-0.33-0.6-0.34-0.85-0.03c-0.77,0.73-1.31,1.66-1.62,2.78
			c-0.31,1.12-0.46,2.3-0.45,3.55c0.01,1.25,0.16,2.5,0.45,3.75C41.17,54.58,41.52,55.71,41.92,56.72z"/>
		<path class="st12" d="M83.31,56.8c-1,0.29-2.02,0.71-3.05,1.26c-1.04,0.55-1.92,1.19-2.64,1.93s-1.22,1.54-1.49,2.41
			c-0.27,0.87-0.17,1.77,0.3,2.72c0.29,0.67,0.69,1.17,1.2,1.5c0.51,0.33,1.06,0.54,1.64,0.65c0.59,0.11,1.19,0.13,1.79,0.07
			c0.61-0.06,1.17-0.17,1.68-0.32c1.03-0.3,1.92-0.78,2.66-1.42c0.75-0.65,1.39-1.44,1.94-2.39c0.54-0.95,0.98-2.01,1.31-3.19
			c0.33-1.18,0.59-2.46,0.78-3.82C87.45,56.01,85.41,56.22,83.31,56.8z"/>
		<path class="st12" d="M249.23,211.92l-0.06-0.23c-0.24,0.06-0.46,0.23-0.66,0.49c-0.19,0.26-0.36,0.56-0.5,0.89
			c-0.14,0.33-0.24,0.66-0.28,1c-0.04,0.34-0.03,0.63,0.03,0.87l-0.9,1.06c-0.3-0.02-0.58-0.18-0.85-0.46
			c-0.27-0.29-0.53-0.62-0.77-1c-0.24-0.38-0.47-0.78-0.66-1.22c-0.19-0.44-0.35-0.82-0.47-1.15c-0.13-0.39-0.17-0.8-0.1-1.22
			c0.07-0.42,0.18-0.81,0.33-1.16c0.15-0.35,0.33-0.66,0.54-0.95c0.2-0.28,0.37-0.49,0.5-0.62c-0.14-0.03-0.37,0-0.71,0.09
			c-0.62,0.23-1.24,0.67-1.85,1.34c-0.61,0.66-1.11,1.42-1.51,2.27c-0.35,0.91-0.61,1.88-0.78,2.91c-0.17,1.04-0.24,2.09-0.21,3.16
			c0.03,1.07,0.15,2.1,0.35,3.11c0.19,1.01,0.48,1.92,0.85,2.73c0.46,1.12,1.07,1.99,1.83,2.63c0.77,0.63,1.68,0.84,2.73,0.63
			c1.11-0.22,2.01-0.91,2.69-2.06c0.67-1.15,1.14-2.5,1.39-4.03c0.25-1.53,0.3-3.12,0.13-4.77
			C250.13,214.58,249.77,213.14,249.23,211.92z"/>
		<path class="st12" d="M103.83,34.62c0.24,0.73,0.6,1.39,1.07,1.97c0.47,0.58,1.12,0.84,1.94,0.78c0.69-0.04,1.38-0.37,2.05-0.98
			s1.29-1.4,1.86-2.37c0.57-0.96,1.06-2.05,1.48-3.26c0.42-1.21,0.75-2.42,1-3.62c0.25-1.2,0.38-2.36,0.4-3.48
			c0.02-1.12-0.09-2.07-0.34-2.87c-0.3-0.94-0.85-1.37-1.63-1.28c-0.72,0.08-1.46,0.32-2.21,0.72c-0.75,0.4-1.46,0.93-2.13,1.57
			c-0.67,0.65-1.28,1.38-1.84,2.22c-0.56,0.84-1,1.71-1.34,2.62c-0.16,1.24-0.29,2.46-0.37,3.67c-0.09,1.21-0.13,2.44-0.13,3.68
			c0.02,0.12,0.04,0.23,0.07,0.32C103.74,34.4,103.78,34.5,103.83,34.62z"/>
		<path class="st12" d="M298.36,192.83l-0.77-1.49c-0.45-0.96-0.9-1.94-1.33-2.93c-0.43-0.99-0.84-2-1.22-3.02
			c-0.41-0.28-0.86-0.45-1.34-0.52c-0.48-0.07-0.96,0.04-1.43,0.31c-0.95,0.68-1.55,1.66-1.79,2.93c-0.24,1.27-0.24,2.64,0,4.12
			c0.24,1.47,0.65,2.95,1.21,4.42c0.56,1.47,1.16,2.74,1.8,3.8c0.16,0.31,0.4,0.67,0.73,1.08c0.33,0.4,0.68,0.78,1.06,1.12
			c0.51,0.52,1.06,0.86,1.65,1c0.59,0.15,1.17-0.15,1.75-0.91c0.25-0.35,0.42-0.91,0.49-1.7c0.07-0.79,0.09-1.66,0.02-2.6
			c-0.06-0.94-0.17-1.92-0.32-2.93C298.71,194.49,298.54,193.6,298.36,192.83z"/>
		<path class="st12" d="M149.85,35.06c0.42-0.08,0.93-0.39,1.53-0.93c0.6-0.54,1.21-1.18,1.83-1.92c0.62-0.74,1.22-1.53,1.81-2.37
			s1.07-1.6,1.46-2.29c0.26-0.95,0.5-1.87,0.71-2.75c0.21-0.88,0.32-1.64,0.32-2.27l-0.24-0.79c0.27-0.13,0.62-0.12,1.07,0.02
			c0.44,0.14,0.92,0.37,1.42,0.68c-0.2-0.18-0.29-0.36-0.27-0.55c0.01-0.09,0-0.21-0.03-0.34c-0.03-0.13-0.06-0.26-0.08-0.39
			c-0.03-0.32-0.09-0.66-0.17-1.02c-0.09-0.36-0.21-0.7-0.36-1.02c-0.15-0.32-0.36-0.59-0.6-0.8c-0.25-0.22-0.57-0.36-0.97-0.44
			c-1.16-0.16-2.26,0.14-3.31,0.9c-1.05,0.76-1.99,1.75-2.83,3c-0.83,1.24-1.55,2.59-2.16,4.04c-0.6,1.46-1.04,2.79-1.3,4
			c-0.1,0.34-0.17,0.77-0.21,1.28c-0.04,0.52-0.04,1.03,0,1.55c0.01,0.73,0.18,1.35,0.51,1.86
			C148.29,35.03,148.92,35.21,149.85,35.06z"/>
		<path class="st12" d="M136.18,19.04l0,0.05c0.09-0.26,0.14-0.51,0.15-0.76s0-0.47-0.04-0.66c-0.11-0.44-0.35-0.59-0.72-0.45
			c-1.03,0.25-1.97,0.78-2.8,1.58c-0.83,0.81-1.56,1.76-2.17,2.85c-0.62,1.09-1.12,2.24-1.5,3.47c-0.38,1.22-0.65,2.37-0.81,3.45
			c1.9-0.96,3.54-2.24,4.92-3.84C134.58,23.12,135.57,21.23,136.18,19.04z"/>
		<path class="st3" d="M107,173.89c33.39,15.57,76.51,15.9,113.56,3.29c-12.05-1.45-24.19-5.57-32.7-12.19
			C159.67,169.49,131.48,172.65,107,173.89z"/>
		<path class="st3" d="M103.76,141.32c2.04-0.57,4.15-0.97,6.34-1.19c-1.77-0.9-3.51-1.81-5.19-2.74
			C104.57,138.7,104.18,140.01,103.76,141.32z"/>
		<path class="st4" d="M220.56,177.18h0.02c1.3-0.45,2.6-0.9,3.9-1.39c0.8-0.28,1.61-0.59,2.41-0.92c0.97-0.35,1.91-0.73,2.86-1.13
			c1.02-0.4,2.01-0.83,3-1.28c0.99-0.43,1.99-0.87,2.96-1.32c0.61-0.28,1.21-0.57,1.8-0.85c0.78-0.38,1.56-0.76,2.34-1.16
			c0.97-0.47,1.91-0.95,2.84-1.47c0.12-0.05,0.21-0.12,0.33-0.17c0.43-0.21,0.85-0.45,1.28-0.69c0.21-0.12,0.45-0.24,0.66-0.38
			c0.73-0.38,1.47-0.78,2.17-1.21c0.21-0.12,0.45-0.26,0.66-0.4c0.8-0.45,1.58-0.92,2.36-1.39c0.99-0.61,2.01-1.25,2.98-1.87
			c0.07-0.05,0.12-0.07,0.19-0.12c0.64-0.4,1.25-0.83,1.87-1.25c0.83-0.54,1.63-1.11,2.46-1.7c1.89-1.35,3.74-2.72,5.53-4.16
			c0.52-0.43,1.04-0.85,1.54-1.25c0.5-0.43,0.99-0.83,1.49-1.25c0.99-0.85,1.96-1.7,2.91-2.58c0.64-0.58,1.25-1.18,1.87-1.77
			c-24.99,6.83-54.05,12.88-83.13,17.52C196.37,171.61,208.5,175.73,220.56,177.18z"/>
		<path class="st4" d="M89.23,149.8c4.42-4.29,9.25-7,14.53-8.48c0.43-1.3,0.81-2.62,1.15-3.93c-21.8-12.03-36.24-26.34-43.83-35.11
			c-0.14,0.64-0.26,1.28-0.35,1.91c-0.02,0.12-0.05,0.24-0.05,0.35c-0.21,1.3-0.35,2.6-0.43,3.9c0,0.02,0,0.02,0,0.05
			c-0.02,0.4-0.05,0.78-0.07,1.18c-0.46,13.17,4.67,27.31,13.25,38.93C81.34,144.56,88.32,142.17,89.23,149.8z"/>
		<path class="st7" d="M115.16,113.11c-4.92,4.42-8.01,10.5-8.84,17.07c-0.31,2.36-0.76,4.78-1.42,7.21
			c1.68,0.93,3.42,1.84,5.19,2.74c8.24-0.81,17.51,0.79,27.98,3.92c-0.27-9.26,13.6-17.64,26.48-9.43
			c5.06-1.97,10.44-4.33,15.99-6.59c0.97-1.75,2.08-3.42,3.33-4.99c25.38-32.07,69.9-30.57,105.64-11.53
			c1.55,0.33,3.15,0.75,4.79,1.25c0.05-0.07,0.1-0.13,0.14-0.21c3.59-9.57,5.58-19.99,5.58-31.21c0-4.3-0.52-8.61-1.63-12.74
			c-12.51-46.15-69.6-29.34-99.41-2.36c-8.77,7.97-20.07,12.6-31.92,12.91c-4.3,0.12-8.68-0.26-13.05-0.9
			c-0.4,2.41-1.23,4.92-2.55,7.49C145.09,100.2,126.39,102.97,115.16,113.11z M257.1,47.73c2.57-1.01,5.04-0.82,5.53,0.41
			s-1.2,3.06-3.77,4.06c-2.57,1.01-5.04,0.82-5.53-0.41C252.84,50.56,254.53,48.74,257.1,47.73z M232.16,49.59
			c8.51-3.34,16.37-3.59,17.56-0.55c1.19,3.04-4.74,8.21-13.24,11.55c-8.51,3.34-16.37,3.59-17.56,0.55
			C217.72,58.11,223.65,52.93,232.16,49.59z"/>
		<path class="st8" d="M104.9,137.39c0.66-2.44,1.11-4.85,1.42-7.21c0.83-6.57,3.92-12.65,8.84-17.07
			c11.23-10.14,29.93-12.91,36.29-27.38c1.32-2.58,2.15-5.08,2.55-7.49c-23.05-3.38-46.69-14.47-68.11-4.16
			c-14.63,6.03-22.34,16.38-24.82,28.2C68.66,111.05,83.11,125.36,104.9,137.39z"/>
		<path class="st8" d="M183.87,123.04c-1.25,1.57-2.36,3.24-3.33,4.99c20.12-8.19,42.62-15,61.11,3.43
			c11.61-12.06,24.67-24.96,47.85-19.95C253.77,92.47,209.24,90.97,183.87,123.04z"/>
		<path class="st10" d="M302.67,87.89c33.16,25.29,2.4,8.11-8.23,24.66c-0.05,0.07-0.1,0.13-0.14,0.21
			c-1.64-0.5-3.24-0.91-4.79-1.25c-23.18-5.01-36.25,7.89-47.85,19.95c-18.49-18.43-40.99-11.62-61.11-3.43
			c-5.56,2.26-10.93,4.63-15.99,6.59c-12.88-8.21-26.75,0.18-26.48,9.43c-10.47-3.14-19.73-4.74-27.98-3.92
			c-2.18,0.22-4.29,0.61-6.34,1.19c-5.28,1.48-10.11,4.19-14.53,8.48c-0.91-7.63-7.89-5.24-15.81-1.19
			c-7.89,4.04-16.72,9.73-21.41,8.83c-6.75-4.86,4.9-12.12,10.86-15.59c-11.9-2.53-19.33,1.6-25,7.07
			c-19.56,21.34,16.08,27.66,69.12,24.96c24.48-1.24,52.67-4.41,80.86-8.91c29.08-4.64,58.15-10.7,83.13-17.52
			C338.78,128.95,376.49,104.78,302.67,87.89z"/>
		<path class="st10" d="M236.48,60.6c8.51-3.34,14.44-8.51,13.24-11.55c-1.19-3.04-9.06-2.79-17.56,0.55
			c-8.51,3.34-14.44,8.51-13.24,11.55C220.11,64.18,227.97,63.94,236.48,60.6z"/>
		<path class="st10" d="M258.86,52.21c2.57-1.01,4.25-2.83,3.77-4.06s-2.96-1.42-5.53-0.41c-2.57,1.01-4.25,2.83-3.77,4.06
			C253.81,53.03,256.29,53.22,258.86,52.21z"/>
		<path class="st11" d="M39.04,103.41c0.6-0.79,1.03-1.48,1.3-2.08c0.88-2.11,1.38-4.49,1.5-7.14c0.12-2.65-0.07-5.46-0.56-8.42
			c-0.49-2.96-1.25-6.04-2.27-9.22c-1.02-3.18-2.23-6.37-3.63-9.57c-1.4-3.2-2.93-6.35-4.59-9.45c-1.66-3.11-3.38-6.06-5.18-8.87
			c-1.79-2.81-3.61-5.42-5.45-7.85c-1.84-2.42-3.62-4.53-5.34-6.34c-0.6-0.65-1.29-1.19-2.08-1.65c-0.78-0.45-1.6-0.76-2.44-0.93
			c-0.84-0.16-1.68-0.15-2.51,0.04c-0.83,0.19-1.6,0.61-2.29,1.25c-0.18,0.17-0.38,0.38-0.57,0.63c-0.2,0.25-0.37,0.53-0.52,0.83
			c-0.69,1.25-1.34,2.74-1.94,4.48c-0.6,1.74-1.11,3.64-1.51,5.7c-0.41,2.06-0.7,4.24-0.86,6.54c-0.16,2.3-0.14,4.61,0.06,6.91
			c0.21,2.31,0.62,4.58,1.24,6.82c0.62,2.24,1.52,4.34,2.69,6.31c0.18,0.52,0.56,1,1.14,1.43c0.57,0.43,1.25,0.79,2.02,1.06
			c0.77,0.27,1.57,0.46,2.39,0.56c0.82,0.1,1.55,0.06,2.18-0.12c0.63-0.18,1.11-0.5,1.42-0.97c0.32-0.47,0.35-1.12,0.09-1.95
			c-1.06-0.91-1.97-2.2-2.72-3.86c-0.75-1.67-1.35-3.54-1.8-5.62c-0.45-2.08-0.76-4.26-0.95-6.54c-0.18-2.28-0.26-4.49-0.22-6.63
			c0.03-2.14,0.17-4.11,0.4-5.92c0.23-1.81,0.54-3.28,0.91-4.4c0.02,0.07,0.06,0.14,0.13,0.21l0.29,0.31
			c1.51,1.86,3.16,4.05,4.93,6.55c1.77,2.51,3.56,5.2,5.37,8.08c1.81,2.88,3.59,5.89,5.32,9.03c1.74,3.14,3.33,6.29,4.79,9.43
			c1.46,3.14,2.71,6.24,3.76,9.29c1.05,3.05,1.79,5.91,2.23,8.58c0.44,2.67,0.51,5.11,0.21,7.32c-0.29,2.21-1.06,4.06-2.29,5.55
			c-1.32,1.22-2.7,2.09-4.16,2.61c-1.46,0.51-2.9,0.76-4.33,0.73c-1.42-0.03-2.78-0.29-4.07-0.77c-1.29-0.48-2.42-1.11-3.39-1.88
			c-1.56-1.26-2.84-2.79-3.83-4.57c-0.99-1.79-1.6-3.66-1.83-5.62c-0.23-1.96-0.03-3.89,0.58-5.8c0.62-1.91,1.72-3.6,3.32-5.08
			c0.44-0.41,0.95-0.75,1.53-1.03c0.58-0.28,1.18-0.46,1.81-0.55c0.63-0.09,1.27-0.06,1.92,0.09c0.65,0.15,1.28,0.43,1.89,0.86
			c0.55,0.18,0.87,0.06,0.95-0.37c0.08-0.42,0.04-0.94-0.11-1.54c-0.16-0.61-0.39-1.22-0.69-1.85c-0.3-0.62-0.58-1.05-0.84-1.29
			c-0.94-0.64-1.91-1.04-2.93-1.21c-1.02-0.17-2.03-0.16-3.03,0.04c-1,0.2-1.96,0.55-2.88,1.07c-0.92,0.51-1.74,1.1-2.46,1.77
			c-2.22,2.06-3.66,4.33-4.33,6.8c-0.67,2.47-0.75,4.96-0.23,7.47c0.52,2.51,1.54,4.92,3.06,7.26c1.52,2.33,3.38,4.36,5.6,6.1
			c1.5,1.15,3.16,2.11,5,2.88c1.83,0.77,3.72,1.21,5.67,1.31c1.95,0.11,3.9-0.19,5.85-0.89c1.95-0.7,3.78-1.94,5.47-3.73
			C37.84,104.92,38.44,104.2,39.04,103.41z"/>
		<path class="st11" d="M35.09,58.94c0.72,1.97,1.81,3.75,3.29,5.36c1.69,1.84,3.58,2.96,5.65,3.35c2.07,0.39,4.16-0.06,6.25-1.36
			c0.32-0.2,0.75-0.49,1.27-0.87c0.53-0.38,1.06-0.88,1.61-1.49c0.55-0.61,1.05-1.35,1.52-2.22c0.47-0.86,0.8-1.88,1.01-3.04
			c0.14-1.06,0.22-2.1,0.25-3.11c0.05,0.08,0.1,0.18,0.16,0.25c0.94,1.33,2.01,2.31,3.22,2.94c1.21,0.63,2.46,0.66,3.76,0.09
			c0.56-0.28,1.05-0.62,1.45-1.01c0.4-0.39,0.75-0.8,1.03-1.22c0.28-0.42,0.51-0.84,0.69-1.27c0.18-0.42,0.31-0.79,0.4-1.12
			c0.33-1.29,0.5-2.67,0.58-4.11c0.01,0.01,0.01,0.02,0.02,0.03c0.84,1.4,1.83,2.46,2.99,3.18c1.16,0.72,2.41,0.85,3.74,0.37
			c0.58-0.24,1.09-0.53,1.53-0.9c0.43-0.36,0.8-0.74,1.12-1.14c0.31-0.4,0.57-0.8,0.78-1.21c0.21-0.41,0.37-0.77,0.48-1.09
			c0.42-1.22,0.68-2.56,0.87-3.94c0.67,1.32,1.5,2.4,2.53,3.18c1.1,0.83,2.32,1.08,3.67,0.75c0.6-0.18,1.14-0.42,1.61-0.74
			c0.46-0.32,0.87-0.66,1.23-1.02s0.65-0.74,0.9-1.13c0.25-0.38,0.44-0.73,0.58-1.03l0.35-0.84c0.12,2.2,0.18,4.28,0.2,6.25
			c-0.74-0.05-1.44-0.08-2.1-0.1s-1.35,0-2.05,0.06c-0.71,0.06-1.45,0.16-2.25,0.31c-0.79,0.15-1.66,0.36-2.6,0.64
			c-1.69,0.5-3.18,1.24-4.47,2.22c-1.29,0.98-2.29,2.13-3.01,3.44c-0.72,1.31-1.11,2.72-1.17,4.24c-0.07,1.51,0.26,3.04,0.97,4.57
			c0.58,1.21,1.33,2.16,2.24,2.84c0.91,0.69,1.9,1.17,2.99,1.44c1.08,0.27,2.2,0.38,3.37,0.32c1.16-0.06,2.29-0.25,3.38-0.57
			c3.42-1,5.94-2.58,7.58-4.73c1.63-2.15,2.71-4.82,3.23-7.99l3.59,1.16l2.63,0.91c0.39,0.08,0.89-0.09,1.5-0.51
			c0.61-0.43,1.14-0.94,1.57-1.54c0.43-0.6,0.69-1.2,0.78-1.78c0.09-0.59-0.21-0.99-0.9-1.21c-0.18-0.05-0.35-0.11-0.5-0.2
			c-0.16-0.09-0.31-0.16-0.46-0.21l0.07,0.08c-1.31-0.44-2.61-0.85-3.91-1.24c-1.3-0.39-2.6-0.74-3.9-1.05
			c0.03-1.49,0-3.04-0.06-4.66c-0.06-1.62-0.16-3.33-0.3-5.14l-1.35-19.07c-0.11-0.72-0.52-1.37-1.23-1.93
			c-0.71-0.56-1.5-1.01-2.37-1.35c-0.87-0.34-1.71-0.52-2.53-0.56c-0.81-0.04-1.39,0.1-1.72,0.43c0.34,2.07,0.65,4.09,0.94,6.06
			c0.28,1.97,0.51,3.83,0.7,5.58c-0.01,0.2-0.03,0.4-0.07,0.59c-0.04,0.19-0.07,0.39-0.07,0.59l0.04-0.01
			c-0.09,1.04-0.19,2.12-0.31,3.22c-0.12,1.1-0.3,2.16-0.55,3.17c-0.25,1.01-0.58,1.94-1,2.81c-0.42,0.86-0.98,1.56-1.68,2.09
			l-0.41,0.12c0.03-0.01,0.01-0.13-0.06-0.38c-0.28-0.61-0.51-1.47-0.7-2.58c-0.19-1.11-0.35-2.3-0.46-3.59
			c-0.11-1.28-0.2-2.58-0.25-3.89c-0.06-1.31-0.09-2.51-0.12-3.59l0.01,0.05c0.01-0.76-0.01-1.43-0.05-2.01
			c-0.04-0.58-0.07-1.01-0.09-1.31c-0.11-0.72-0.52-1.37-1.21-1.96c-0.69-0.59-1.47-1.06-2.32-1.44c-0.85-0.37-1.67-0.59-2.46-0.66
			c-0.79-0.06-1.34,0.06-1.64,0.38l-0.18,0.74c0.21,0.96,0.41,2.17,0.6,3.64c0.19,1.47,0.38,3.02,0.59,4.63
			c0.09,0.84,0.22,1.69,0.32,2.54c-0.06,0-0.13-0.01-0.19,0c-0.36,0.04-0.53,0.16-0.51,0.36c0.01,0.27-0.01,0.56-0.04,0.86
			c-0.03,0.3-0.04,0.6-0.02,0.9l0.04-0.02c0.01,1.05,0.02,2.13,0.01,3.24c-0.01,1.11-0.09,2.18-0.24,3.21
			c-0.15,1.03-0.39,1.99-0.72,2.89c-0.33,0.9-0.82,1.65-1.46,2.25l-0.3,0.12l-0.14-0.35c-0.36-0.57-0.69-1.38-0.99-2.46
			c-0.3-1.07-0.57-2.26-0.81-3.58c-0.24-1.31-0.46-2.69-0.65-4.12c-0.19-1.43-0.36-2.81-0.5-4.13c-0.14-1.32-0.26-2.52-0.36-3.6
			c-0.1-1.08-0.17-1.94-0.22-2.56l-0.06-0.64c-0.1-1.08-0.2-2.24-0.3-3.47c-0.11-1.23-0.23-2.41-0.36-3.55
			c-0.14-1.13-0.26-2.16-0.37-3.06c-0.11-0.91-0.21-1.6-0.3-2.07c-0.2-0.67-0.69-1.24-1.46-1.73c-0.78-0.49-1.6-0.86-2.49-1.11
			c-0.89-0.26-1.74-0.36-2.55-0.32c-0.82,0.04-1.37,0.26-1.65,0.64c0.27,0.91,0.53,1.92,0.79,3.02c0.26,1.1,0.49,2.26,0.69,3.47
			c0.2,1.21,0.39,2.45,0.56,3.73c0.18,1.27,0.34,2.52,0.5,3.75l0.35,4.14c0.3,3.01,0.67,6.03,1.11,9.06
			c0.01,0.06,0.02,0.13,0.03,0.19c-0.29,0.07-0.44,0.19-0.42,0.37c0.03,0.27,0.04,0.55,0.03,0.86c-0.01,0.3,0.01,0.6,0.05,0.9
			l0.04-0.02c0.09,1.04,0.18,2.12,0.25,3.23c0.07,1.11,0.07,2.18,0,3.21c-0.07,1.04-0.24,2.02-0.5,2.94
			c-0.27,0.92-0.7,1.71-1.29,2.35l-0.3,0.15l-0.17-0.34c-0.41-0.54-0.8-1.33-1.17-2.37c-0.37-1.04-0.73-2.21-1.07-3.5
			c-0.34-1.29-0.66-2.65-0.95-4.06c-0.3-1.42-0.57-2.78-0.81-4.08c-0.24-1.31-0.45-2.49-0.63-3.57c-0.18-1.07-0.31-1.92-0.41-2.54
			l-0.1-0.63c-0.18-1.07-0.37-2.22-0.57-3.44c-0.2-1.22-0.41-2.39-0.63-3.51c-0.22-1.12-0.42-2.13-0.6-3.03
			c-0.18-0.9-0.33-1.58-0.45-2.04c-0.25-0.65-0.78-1.19-1.59-1.61c-0.81-0.43-1.66-0.73-2.56-0.92c-0.9-0.19-1.76-0.23-2.57-0.13
			c-0.81,0.1-1.34,0.36-1.6,0.76c0.33,0.89,0.67,1.87,1.01,2.95c0.34,1.08,0.66,2.22,0.95,3.41c0.29,1.19,0.57,2.42,0.84,3.67
			c0.27,1.26,0.53,2.49,0.78,3.7l0.66,4.1c0.48,2.74,1.04,5.49,1.65,8.25c-0.02,0.01-0.04,0.02-0.06,0.03
			c-0.35,0.25-0.51,0.61-0.48,1.07c0.17,0.75,0.33,1.54,0.5,2.39c0.17,0.84,0.3,1.67,0.41,2.5c0.15,1.57,0.17,3.01,0.05,4.31
			c-0.12,1.3-0.36,2.44-0.72,3.42c-0.36,0.98-0.8,1.78-1.32,2.4c-0.53,0.62-1.11,1.04-1.76,1.25l0.11-0.01
			c-0.73,0.26-1.48,0.19-2.27-0.21c-0.79-0.4-1.48-0.92-2.09-1.54c1.77-2.17,2.99-4.57,3.64-7.2c0.66-2.63,0.66-5.4,0-8.33
			l0.03,0.04c-0.11-0.78-0.3-1.47-0.58-2.06c-0.27-0.59-0.61-1.13-1.03-1.62c-0.93-1.09-2.01-1.75-3.24-1.97
			c-1.23-0.22-2.42,0-3.56,0.67c-1.09,0.64-2.01,1.46-2.75,2.48c-0.74,1.02-1.34,2.11-1.79,3.27c-0.45,1.17-0.76,2.33-0.93,3.49
			c-0.17,1.16-0.23,2.19-0.16,3.07C33.9,54.65,34.38,56.97,35.09,58.94z M88.66,60.01c-0.33,1.18-0.76,2.24-1.31,3.19
			c-0.54,0.95-1.19,1.74-1.94,2.39c-0.75,0.65-1.63,1.12-2.66,1.42c-0.51,0.15-1.07,0.26-1.68,0.32c-0.6,0.06-1.2,0.04-1.79-0.07
			c-0.59-0.11-1.14-0.32-1.64-0.65c-0.51-0.33-0.91-0.83-1.2-1.5c-0.47-0.94-0.57-1.85-0.3-2.72c0.27-0.87,0.77-1.67,1.49-2.41
			s1.6-1.38,2.64-1.93c1.04-0.55,2.05-0.97,3.05-1.26c2.1-0.58,4.14-0.78,6.13-0.61C89.25,57.56,88.99,58.83,88.66,60.01z
			 M40.88,46.03c0.31-1.12,0.85-2.04,1.62-2.78c0.26-0.31,0.54-0.3,0.85,0.03c0.12,0.14,0.25,0.33,0.37,0.55
			c0.12,0.22,0.21,0.47,0.26,0.73l-0.02-0.04c0.58,2.2,0.67,4.33,0.29,6.41c-0.39,2.07-1.16,4-2.32,5.79
			c-0.4-1.01-0.75-2.14-1.04-3.39c-0.29-1.25-0.44-2.5-0.45-3.75C40.42,48.33,40.56,47.15,40.88,46.03z"/>
		<path class="st11" d="M98.58,41.26c0.16,0.39,0.56,0.74,1.21,1.06c0.66,0.31,1.34,0.55,2.05,0.71c0.71,0.16,1.34,0.22,1.89,0.17
			c0.55-0.05,0.8-0.25,0.75-0.59c-0.06-0.15-0.09-0.3-0.12-0.46s-0.05-0.31-0.07-0.47c0.71,0.5,1.54,0.86,2.49,1.1
			c0.94,0.24,1.96,0.29,3.06,0.15c1.59-0.44,3.04-1.26,4.36-2.46c1.31-1.21,2.42-2.64,3.31-4.31c0.89-1.67,1.57-3.49,2.03-5.45
			c0.46-1.97,0.67-3.94,0.63-5.91c-0.03-0.63-0.1-1.31-0.22-2.05c-0.11-0.73-0.29-1.45-0.52-2.14c-0.26-0.85-0.6-1.66-1.01-2.4
			c-0.42-0.75-0.94-1.41-1.55-1.99s-1.33-1.02-2.14-1.35c-0.81-0.32-1.75-0.48-2.8-0.48c-1.18,0.02-2.31,0.34-3.39,0.95
			c-1.09,0.61-2.08,1.4-2.99,2.37l0.14-0.93c0.15-1.11,0.31-2.27,0.49-3.5c0.18-1.22,0.34-2.4,0.49-3.52
			c0.15-1.12,0.26-2.14,0.35-3.04c0.08-0.91,0.14-1.6,0.16-2.08c-0.04-0.69-0.39-1.37-1.03-2.02c-0.64-0.65-1.36-1.2-2.17-1.65
			c-0.8-0.45-1.61-0.75-2.41-0.9s-1.39-0.07-1.76,0.24c0.05,0.95,0.07,1.99,0.07,3.12c0,1.13-0.04,2.31-0.13,3.54
			s-0.19,2.48-0.31,3.75c-0.12,1.28-0.25,2.53-0.38,3.77l-0.43,3.13c-0.24,1.98-0.48,3.98-0.71,5.99c-0.23,2.01-0.39,4.01-0.47,6
			c-0.08,1.99-0.04,3.96,0.12,5.91C97.74,37.48,98.07,39.39,98.58,41.26z M103.76,30.3c0.09-1.21,0.21-2.43,0.37-3.67
			c0.34-0.91,0.78-1.79,1.34-2.62c0.56-0.83,1.17-1.57,1.84-2.22c0.67-0.64,1.38-1.17,2.13-1.57c0.75-0.4,1.49-0.64,2.21-0.72
			c0.78-0.09,1.33,0.34,1.63,1.28c0.25,0.79,0.36,1.75,0.34,2.87c-0.02,1.12-0.15,2.28-0.4,3.48c-0.24,1.2-0.58,2.41-1,3.62
			c-0.42,1.21-0.91,2.3-1.48,3.26c-0.57,0.97-1.19,1.75-1.86,2.37s-1.36,0.94-2.05,0.98c-0.82,0.06-1.47-0.2-1.94-0.78
			c-0.47-0.58-0.83-1.24-1.07-1.97c-0.05-0.12-0.09-0.23-0.12-0.32c-0.03-0.09-0.06-0.2-0.07-0.32
			C103.63,32.74,103.68,31.51,103.76,30.3z"/>
		<path class="st11" d="M124.6,39.05c1.6,1.38,3.62,2.04,6.08,1.97c0.38-0.01,0.89-0.05,1.54-0.11c0.64-0.06,1.36-0.22,2.14-0.48
			c0.78-0.26,1.59-0.64,2.43-1.15c0.84-0.51,1.64-1.22,2.41-2.12c0.69-0.89,1.31-1.79,1.86-2.71c0.01,0.05,0.02,0.09,0.03,0.14
			c0.23,0.9,0.61,1.76,1.12,2.57c0.51,0.82,1.18,1.55,2.02,2.2c0.83,0.65,1.85,1.1,3.06,1.36c1.29,0.11,2.56-0.24,3.8-1.06
			c1.25-0.81,2.41-1.83,3.5-3.04c0.19,1.45,0.69,2.68,1.49,3.71c0.81,1.02,1.97,1.68,3.49,1.98c0.66,0.1,1.26,0.1,1.81-0.02
			c0.55-0.11,1.06-0.28,1.53-0.5c0.47-0.22,0.88-0.46,1.22-0.72c0.35-0.26,0.64-0.51,0.89-0.73c0.7-0.62,1.35-1.29,1.97-2
			c-0.06,0.33-0.16,0.62-0.21,0.95c-0.01,0.42,0.22,0.91,0.69,1.46c0.47,0.55,1,1.04,1.59,1.47c0.59,0.43,1.14,0.73,1.67,0.91
			c0.52,0.17,0.83,0.09,0.92-0.24c0.38-2.05,0.93-4.04,1.63-5.97c0.71-1.93,1.53-3.78,2.46-5.56c1.07-1.09,2.11-2.06,3.12-2.91
			c1.01-0.86,2.13-1.69,3.36-2.51l2.05-1.46c-0.03,0.35-0.15,0.79-0.35,1.3c-0.2,0.52-0.46,1.06-0.78,1.63
			c-0.72,1.34-1.35,2.55-1.89,3.63c-0.55,1.08-1.02,2.09-1.42,3.02c-0.4,0.94-0.73,1.84-1.01,2.72c-0.28,0.87-0.5,1.78-0.65,2.71
			c-0.16,1.1-0.15,2.09,0.02,2.97c0.17,0.88,0.46,1.63,0.87,2.26c0.4,0.63,0.9,1.15,1.5,1.55c0.59,0.4,1.21,0.69,1.85,0.86
			c1.04,0.28,2.12,0.16,3.25-0.34c1.13-0.5,2.22-1.18,3.28-2.04s2.03-1.78,2.91-2.75c0.88-0.97,1.59-1.81,2.14-2.52l0.01-0.05
			l2.86-3.94l-0.03,0.09c0.15-0.19,0.13-0.46-0.05-0.82c-0.18-0.36-0.43-0.69-0.74-1s-0.62-0.55-0.94-0.71
			c-0.32-0.17-0.54-0.18-0.67-0.06l-0.81,1.2c-0.3,0.41-0.62,0.81-0.94,1.22c-0.32,0.4-0.66,0.82-1.04,1.24
			c-1.36,1.66-2.66,2.91-3.93,3.75c-1.27,0.84-2.34,1.38-3.22,1.64l0.05,0.01c-0.18,0.05-0.28,0.12-0.3,0.21
			c0.14-0.88,0.32-1.68,0.54-2.4c0.22-0.72,0.48-1.42,0.78-2.09c0.29-0.67,0.62-1.34,0.98-2.02c0.36-0.67,0.75-1.4,1.2-2.2
			c0.5-0.91,1.09-2,1.75-3.28s1.36-2.65,2.07-4.12c0.19-0.47,0.22-1.07,0.09-1.79c-0.14-0.72-0.37-1.42-0.69-2.09
			c-0.33-0.67-0.71-1.27-1.16-1.8s-0.88-0.85-1.31-0.96c-1.3-0.25-2.61-0.14-3.93,0.33c-1.31,0.47-2.59,1.12-3.82,1.97
			c-0.12-0.65-0.39-1.32-0.79-1.99c-0.41-0.68-0.87-1.28-1.38-1.81c-0.51-0.53-1.04-0.95-1.57-1.27c-0.53-0.32-0.98-0.43-1.33-0.33
			c-0.49,1.24-1.04,2.52-1.66,3.84c-0.61,1.32-1.23,2.68-1.87,4.08c-0.39,0.8-0.76,1.59-1.13,2.38c-0.11-0.05-0.23-0.15-0.34-0.19
			c-0.35-0.12-0.58-0.1-0.69,0.04c-0.14,0.37-0.36,0.77-0.66,1.21c-0.48,0.93-1,1.9-1.53,2.9c-0.54,1-1.12,1.94-1.76,2.8
			c-0.63,0.87-1.32,1.62-2.06,2.27c-0.74,0.65-1.53,1.09-2.38,1.31l-0.33-0.04c0.1-0.08,0.14-0.16,0.12-0.23
			c-0.02-0.41,0.03-0.91,0.14-1.48c0.11-0.57,0.26-1.19,0.44-1.83c0.18-0.65,0.38-1.31,0.6-1.98c0.22-0.67,0.42-1.3,0.61-1.88
			c0.09-0.27,0.19-0.54,0.28-0.8c0.09-0.26,0.18-0.5,0.27-0.71c0.08-0.44,0.03-0.91-0.15-1.42c-0.18-0.51-0.45-1.01-0.79-1.49
			c-0.34-0.48-0.76-0.95-1.25-1.4c-0.49-0.45-0.97-0.84-1.44-1.18c0.24,0.12,0.51,0.22,0.82,0.28c0.31,0.07,0.6,0.09,0.87,0.07
			c0.27-0.02,0.5-0.08,0.69-0.19c0.19-0.11,0.29-0.25,0.31-0.44c0-0.83-0.07-1.66-0.2-2.52c-0.13-0.85-0.34-1.67-0.63-2.45
			c-0.3-0.78-0.7-1.47-1.22-2.08c-0.52-0.61-1.17-1.09-1.96-1.43c-0.46-0.18-0.89-0.32-1.29-0.43c-0.4-0.11-0.81-0.18-1.21-0.23
			c-1.38-0.15-2.7,0-3.98,0.47c-1.27,0.46-2.46,1.14-3.58,2.03c-1.11,0.89-2.15,1.94-3.1,3.13c-0.96,1.2-1.78,2.45-2.46,3.77
			c-0.06,0.11-0.1,0.22-0.15,0.33c-0.07,0-0.13-0.02-0.2-0.01c-0.42,0.04-0.74,0.27-0.95,0.69c-0.24,0.73-0.49,1.5-0.77,2.31
			c-0.28,0.81-0.58,1.6-0.91,2.36c-0.66,1.44-1.37,2.68-2.13,3.74c-0.76,1.06-1.54,1.92-2.35,2.59c-0.8,0.67-1.59,1.14-2.35,1.41
			s-1.48,0.34-2.15,0.2l0.1,0.05c-0.76-0.14-1.38-0.58-1.86-1.33s-0.82-1.54-1.03-2.39c2.63-0.98,4.88-2.44,6.77-4.38
			c1.89-1.94,3.29-4.34,4.19-7.2v0.05c0.3-0.73,0.48-1.42,0.54-2.07c0.06-0.65,0.04-1.29-0.07-1.91c-0.26-1.41-0.86-2.52-1.81-3.34
			c-0.95-0.81-2.09-1.22-3.41-1.21c-1.26,0-2.47,0.25-3.62,0.75c-1.15,0.5-2.22,1.14-3.19,1.93c-0.97,0.78-1.83,1.63-2.56,2.55
			c-0.73,0.92-1.3,1.78-1.69,2.57c-1.14,2.43-1.89,4.67-2.26,6.73c-0.37,2.06-0.33,4.15,0.13,6.29
			C121.94,35.76,123,37.67,124.6,39.05z M147.46,31.11c0.04-0.52,0.11-0.95,0.21-1.28c0.26-1.21,0.69-2.54,1.3-4
			c0.6-1.46,1.32-2.8,2.16-4.04c0.83-1.24,1.78-2.24,2.83-3c1.05-0.76,2.15-1.06,3.31-0.9c0.4,0.08,0.73,0.22,0.97,0.44
			c0.24,0.22,0.45,0.49,0.6,0.8c0.16,0.32,0.28,0.66,0.36,1.02c0.09,0.36,0.15,0.7,0.17,1.02c0.02,0.13,0.04,0.26,0.08,0.39
			c0.03,0.13,0.04,0.24,0.03,0.34c-0.02,0.19,0.07,0.37,0.27,0.55c-0.51-0.31-0.98-0.54-1.42-0.68c-0.44-0.14-0.8-0.15-1.07-0.02
			l0.24,0.79c0,0.63-0.11,1.39-0.32,2.27c-0.21,0.88-0.44,1.8-0.71,2.75c-0.39,0.69-0.88,1.45-1.46,2.29s-1.19,1.63-1.81,2.37
			c-0.62,0.74-1.23,1.38-1.83,1.92c-0.6,0.54-1.11,0.85-1.53,0.93c-0.94,0.15-1.57-0.03-1.89-0.54c-0.32-0.51-0.49-1.13-0.51-1.86
			C147.41,32.14,147.42,31.63,147.46,31.11z M129.09,25.1c0.38-1.22,0.88-2.38,1.5-3.47c0.62-1.09,1.34-2.04,2.17-2.85
			c0.83-0.81,1.76-1.34,2.8-1.58c0.38-0.14,0.62,0.02,0.72,0.45c0.03,0.19,0.05,0.41,0.04,0.66s-0.06,0.51-0.15,0.76l0-0.05
			c-0.6,2.19-1.6,4.08-2.98,5.68c-1.38,1.6-3.02,2.88-4.92,3.84C128.44,27.48,128.71,26.33,129.09,25.1z"/>
		<path class="st11" d="M253.2,212.35c-0.15-0.32-0.28-0.6-0.38-0.83c-0.11-0.23-0.23-0.46-0.35-0.69c-0.9-1.46-1.87-2.49-2.91-3.1
			c-0.77-1.07-1.71-1.97-2.82-2.69c-1.12-0.72-2.36-1.03-3.74-0.93c-0.75,0.14-1.45,0.38-2.11,0.67c0.52-1.05,1.03-2.1,1.48-3.12
			c1.11-2.5,1.94-4.78,2.49-6.84c0.04-0.22-0.05-0.54-0.27-0.96c-0.22-0.42-0.51-0.84-0.87-1.29c-0.36-0.44-0.76-0.88-1.2-1.33
			c-0.44-0.44-0.87-0.81-1.28-1.12c-0.41-0.3-0.78-0.49-1.11-0.59c-0.32-0.09-0.54-0.03-0.64,0.19c-0.69,3.1-1.62,6.22-2.81,9.38
			c-1.18,3.16-2.56,6.27-4.13,9.35c-1.57,3.08-3.3,6.09-5.18,9.02c-1.88,2.94-3.89,5.73-6.03,8.38c-2.14,2.64-4.38,5.11-6.7,7.4
			c-2.33,2.29-4.7,4.32-7.1,6.09l-0.05-0.05c-0.02-0.13,0.09-0.54,0.34-1.24c0.24-0.7,0.6-1.59,1.05-2.68
			c0.45-1.09,0.97-2.34,1.57-3.77c0.59-1.43,1.24-2.96,1.93-4.61c0.84-1.99,1.73-4.11,2.69-6.38c0.96-2.26,1.9-4.55,2.82-6.85
			c0.93-2.3,1.79-4.53,2.58-6.71c0.79-2.18,1.47-4.19,2.01-6.03c0.08-0.41,0.01-0.88-0.2-1.43c-0.22-0.54-0.53-1.08-0.93-1.62
			c-0.41-0.54-0.87-1.04-1.38-1.52c-0.52-0.48-1.04-0.86-1.56-1.15c-0.53-0.29-1.02-0.44-1.47-0.46c-0.46-0.02-0.8,0.16-1.04,0.53
			l-0.12,0.7c0,0.06-0.02,0.18-0.06,0.36c-0.04,0.17-0.08,0.36-0.12,0.56c-0.04,0.2-0.08,0.39-0.12,0.56
			c-0.04,0.17-0.06,0.27-0.06,0.31c-0.76,2.4-1.55,4.71-2.38,6.93c-0.83,2.23-1.68,4.41-2.55,6.55l-0.15,0.14
			c-0.48,1.09-1.1,2.44-1.84,4.07c-0.74,1.63-1.58,3.36-2.52,5.2c-0.94,1.84-1.94,3.69-3.01,5.56c-1.07,1.87-2.16,3.59-3.28,5.17
			s-2.25,2.91-3.38,4.01c-1.13,1.09-2.22,1.77-3.27,2.05c-0.67,0.13-1.18,0.03-1.55-0.3c-0.37-0.33-0.59-0.8-0.66-1.4
			c-0.12-0.95-0.07-2.11,0.16-3.47c0.23-1.36,0.56-2.85,1.01-4.48c0.44-1.62,0.98-3.35,1.62-5.16c0.64-1.82,1.32-3.66,2.04-5.53
			c0.72-1.87,1.45-3.71,2.21-5.54c0.75-1.83,1.47-3.57,2.17-5.22c0.56-1.34,1.09-2.63,1.6-3.89c0.51-1.26,0.95-2.41,1.34-3.45
			c0.39-1.04,0.69-1.93,0.91-2.68c0.22-0.75,0.32-1.3,0.3-1.65c-0.07-0.51-0.31-1.08-0.69-1.71c-0.39-0.63-0.87-1.24-1.44-1.83
			c-0.58-0.59-1.2-1.1-1.86-1.54c-0.66-0.44-1.31-0.71-1.93-0.83c-0.31-0.08-0.66-0.12-1.03-0.14c-0.38-0.01-0.77-0.03-1.18-0.05
			c-1.61-0.06-3.41,0.08-5.39,0.43c-1.99,0.35-4,0.9-6.05,1.66c-2.05,0.75-4.06,1.73-6.03,2.93c-1.97,1.2-3.77,2.61-5.4,4.24
			c-1.63,1.62-3,3.47-4.12,5.54c-1.12,2.07-1.84,4.38-2.17,6.92c-0.01,1.01,0.29,1.91,0.89,2.71c0.6,0.8,1.29,1.46,2.05,2
			c0.77,0.54,1.49,0.9,2.18,1.08c0.69,0.18,1.1,0.15,1.23-0.1l0.12-0.66c-0.2-1.21-0.06-2.53,0.44-3.98
			c0.49-1.45,1.27-2.9,2.32-4.38c1.05-1.47,2.34-2.92,3.86-4.35c1.52-1.42,3.2-2.7,5.05-3.82c1.84-1.13,3.81-2.06,5.9-2.8
			c2.1-0.74,4.23-1.19,6.42-1.36c-1.63,3.06-3.21,6.25-4.73,9.59c-1.52,3.33-2.89,6.61-4.1,9.85c-1.21,3.23-2.23,6.31-3.03,9.23
			c-0.81,2.92-1.32,5.48-1.53,7.68c-0.01,0.44-0.02,0.88,0,1.33c0.01,0.44,0.05,0.9,0.09,1.38c0.15,1.11,0.41,2.17,0.78,3.18
			s0.86,1.89,1.48,2.66c0.61,0.77,1.36,1.39,2.22,1.86c0.86,0.48,1.87,0.74,3,0.78c0.76,0.03,1.57-0.05,2.42-0.24v0.05
			c1.14-0.24,2.34-0.9,3.6-1.97c1.26-1.07,2.51-2.39,3.77-3.95l-0.4,1.83c0.06,0.76,0.28,1.48,0.65,2.18
			c0.37,0.69,0.83,1.32,1.37,1.9c0.54,0.57,1.14,1.04,1.79,1.4c0.65,0.36,1.28,0.56,1.91,0.62c1.27-0.07,2.72-0.61,4.37-1.6
			c1.64-0.99,3.4-2.33,5.26-4.01c1.87-1.68,3.79-3.64,5.77-5.88c1.98-2.24,3.93-4.63,5.87-7.18c1.93-2.54,3.79-5.18,5.58-7.92
			c0.06-0.1,0.12-0.19,0.18-0.28c-0.07,1.13-0.06,2.25,0.07,3.37c0.18,1.44,0.54,2.78,1.1,4.04c0.34,0.79,0.72,1.51,1.14,2.14
			c1.61,2.42,3.43,4.05,5.48,4.9c2.05,0.85,4.06,1.04,6.06,0.55c1.1-0.29,2.07-0.8,2.92-1.54c0.85-0.74,1.58-1.64,2.18-2.69
			c0.6-1.05,1.07-2.23,1.4-3.54c0.33-1.3,0.53-2.64,0.6-4.01c0.07-1.36-0.01-2.75-0.24-4.13
			C254.14,214.93,253.75,213.61,253.2,212.35z M250.17,221c-0.25,1.53-0.72,2.87-1.39,4.03c-0.68,1.15-1.57,1.84-2.69,2.06
			c-1.05,0.21-1.96,0-2.73-0.63c-0.77-0.63-1.38-1.51-1.83-2.63c-0.37-0.82-0.66-1.72-0.85-2.73c-0.2-1.01-0.31-2.04-0.35-3.11
			c-0.03-1.07,0.04-2.12,0.21-3.16c0.17-1.04,0.43-2.01,0.78-2.91c0.4-0.85,0.9-1.61,1.51-2.27c0.61-0.66,1.23-1.11,1.85-1.34
			c0.34-0.09,0.57-0.12,0.71-0.09c-0.13,0.13-0.3,0.34-0.5,0.62c-0.2,0.28-0.38,0.6-0.54,0.95c-0.15,0.35-0.26,0.74-0.33,1.16
			c-0.07,0.42-0.04,0.83,0.1,1.22c0.12,0.33,0.27,0.71,0.47,1.15c0.19,0.43,0.42,0.84,0.66,1.22c0.24,0.37,0.5,0.71,0.77,1
			c0.27,0.29,0.55,0.44,0.85,0.46l0.9-1.06c-0.06-0.24-0.07-0.53-0.03-0.87c0.04-0.34,0.14-0.67,0.28-1
			c0.14-0.33,0.31-0.62,0.5-0.89c0.19-0.26,0.41-0.42,0.66-0.49l0.06,0.23c0.54,1.23,0.91,2.66,1.07,4.31
			C250.47,217.88,250.42,219.47,250.17,221z"/>
		<path class="st11" d="M311.61,184.41l-0.03-0.04l-0.54-1.96c-0.06-0.23-0.29-0.38-0.7-0.45c-0.41-0.07-0.83-0.07-1.26-0.02
			c-0.43,0.05-0.82,0.16-1.16,0.31c-0.34,0.15-0.49,0.33-0.48,0.51c0.15,0.36,0.27,0.8,0.36,1.33c0.29,1.01,0.58,2.06,0.88,3.16
			c0.3,1.1,0.51,2.18,0.65,3.24c0.13,1.06,0.16,2.09,0.06,3.06c-0.09,0.98-0.37,1.84-0.83,2.59l-0.38,0.28
			c0.06-0.08-0.03-0.23-0.28-0.45c-0.47-0.47-0.96-1.09-1.45-1.87c-0.48-0.78-0.92-1.6-1.29-2.46l0.07-0.06
			c-1.13-2.23-2.09-4.38-2.88-6.47c-0.79-2.09-1.54-4.12-2.23-6.08l0.03,0.04l-0.93-2.56c-0.37-1.06-0.77-2.19-1.2-3.39
			c-0.43-1.2-0.85-2.33-1.27-3.4c-0.42-1.07-0.8-2.02-1.15-2.86c-0.36-0.84-0.62-1.42-0.8-1.77c-0.34-0.61-0.95-1.06-1.82-1.35
			c-0.87-0.29-1.77-0.43-2.71-0.41c-0.94,0.02-1.79,0.15-2.57,0.4c-0.78,0.25-1.24,0.59-1.39,1.02c0.5,0.77,1.02,1.65,1.56,2.65
			c0.54,1,1.07,2.05,1.6,3.17s1.04,2.28,1.54,3.49c0.49,1.21,0.93,2.4,1.31,3.57l0.94,2.73l0.18,0.63
			c-0.99-0.16-1.95-0.09-2.87,0.21c-0.45,0.19-0.86,0.38-1.23,0.57c-0.37,0.2-0.71,0.42-1.04,0.66c-1.11,0.84-1.96,1.86-2.57,3.07
			c-0.6,1.21-1.01,2.52-1.2,3.93c-0.2,1.41-0.23,2.88-0.11,4.41s0.39,3,0.8,4.43c0.02,0.07,0.05,0.13,0.07,0.2
			c-0.31,0.09-0.46,0.22-0.42,0.4c0.04,0.27,0.06,0.55,0.07,0.86c0,0.3,0.04,0.6,0.09,0.9l0.04-0.02c0.14,1.04,0.28,2.11,0.41,3.21
			c0.12,1.1,0.18,2.17,0.16,3.21c-0.02,1.04-0.13,2.02-0.36,2.96c-0.22,0.94-0.61,1.74-1.17,2.41l-0.29,0.16l-0.18-0.33
			c-0.43-0.52-0.86-1.29-1.28-2.31c-0.43-1.03-0.84-2.17-1.25-3.45c-0.4-1.27-0.78-2.61-1.15-4.01c-0.36-1.4-0.7-2.75-1-4.04
			c-0.3-1.29-0.57-2.47-0.8-3.53c-0.23-1.06-0.41-1.9-0.54-2.51l-0.13-0.63c-0.23-1.06-0.47-2.2-0.73-3.41
			c-0.26-1.21-0.53-2.37-0.8-3.48c-0.28-1.11-0.53-2.11-0.75-2.99c-0.22-0.88-0.41-1.56-0.55-2.02c-0.28-0.63-0.84-1.15-1.67-1.54
			c-0.83-0.39-1.7-0.65-2.6-0.79c-0.91-0.15-1.77-0.14-2.57,0c-0.81,0.14-1.33,0.42-1.56,0.84c0.38,0.87,0.76,1.84,1.16,2.9
			c0.39,1.06,0.76,2.18,1.11,3.36c0.35,1.18,0.69,2.38,1.02,3.63s0.65,2.46,0.96,3.66l0.86,4.07c0.67,2.95,1.41,5.9,2.23,8.85
			c0.01,0.04,0.02,0.08,0.04,0.11c-0.19,0.06-0.33,0.14-0.35,0.26c0.04,0.74,0.06,1.63,0.08,2.69c0.01,1.06,0,2.14-0.05,3.25
			l0.05-0.02c-0.01,0.86-0.12,1.69-0.31,2.49c-0.19,0.8-0.43,1.52-0.7,2.17c-0.28,0.65-0.58,1.18-0.91,1.61
			c-0.33,0.43-0.66,0.7-1,0.81c-0.35,0.15-0.56,0.13-0.63-0.04c-0.21-0.33-0.35-0.78-0.44-1.35c-0.09-0.58-0.14-1.18-0.15-1.81
			c-0.01-0.63,0.01-1.26,0.05-1.9c0.04-0.63,0.09-1.2,0.15-1.71c0.06-0.67,0.12-1.33,0.19-1.98c0.07-0.64,0.15-1.3,0.25-1.96
			c0.12-1.18,0.23-2.32,0.32-3.44c0.09-1.12,0.11-2.14,0.04-3.07c-0.07-0.93-0.24-1.74-0.53-2.42c-0.29-0.68-0.72-1.19-1.31-1.53
			c-0.09-0.03-0.29-0.09-0.62-0.18c-0.32-0.09-0.7-0.16-1.13-0.24c-0.42-0.08-0.83-0.14-1.21-0.19c-0.38-0.04-0.66-0.03-0.83,0.04
			c-0.03,0.25-0.17,0.65-0.42,1.2c-0.25,0.55-0.54,1.15-0.86,1.8c-0.33,0.65-0.67,1.31-1.04,1.98c-0.37,0.67-0.71,1.26-1.03,1.77
			c-0.32,0.51-0.57,0.88-0.76,1.11c-0.19,0.24-0.28,0.25-0.27,0.04l0.35-2.46c-0.08-0.44-0.18-0.82-0.3-1.13
			c-0.12-0.31-0.25-0.59-0.42-0.82c-0.32-0.52-0.72-0.93-1.19-1.24c-0.48-0.31-0.99-0.55-1.56-0.7c-0.56-0.16-1.14-0.26-1.74-0.3
			c-0.6-0.04-1.18-0.08-1.74-0.12c0.16,0.72,0.27,1.34,0.32,1.87c0.05,0.52,0.08,1.01,0.1,1.45c0.01,1.09,0.04,2.03,0.07,2.84
			c0.03,0.81,0.31,1.63,0.84,2.47c0.38,0.66,0.88,1.15,1.49,1.48l0.03,5.94l-0.02-0.04c0,0.24,0.18,0.45,0.52,0.63
			c0.35,0.18,0.74,0.3,1.16,0.38c0.42,0.08,0.81,0.09,1.17,0.05c0.36-0.05,0.53-0.17,0.51-0.37l0.06,0.02
			c0-0.99-0.02-2.03-0.04-3.14c-0.02-1.1,0.01-2.25,0.09-3.45l0.39-0.17c0.53-0.19,0.96-0.4,1.27-0.64c0.31-0.23,0.62-0.47,0.94-0.7
			c0.15-0.13,0.33-0.27,0.54-0.41c0.21-0.14,0.49-0.33,0.83-0.58c-0.66,0.55-1.08,1.02-1.26,1.4c-0.18,0.39-0.28,0.77-0.29,1.15
			l-0.16,1.81l-0.02-0.05l-0.14,1.5c-0.09,0.93-0.16,1.83-0.2,2.7c-0.05,0.87-0.03,1.74,0.04,2.6c0.07,0.86,0.23,1.73,0.46,2.63
			c0.24,0.89,0.62,1.79,1.14,2.7c0.37,0.63,0.81,1.2,1.33,1.7c0.52,0.5,1.08,0.91,1.69,1.21c0.61,0.31,1.25,0.49,1.93,0.55
			c0.67,0.06,1.37-0.05,2.08-0.31c1.21-0.44,2.21-1.14,3-2.08c0.78-0.94,1.42-2.01,1.9-3.21c0.49-1.2,0.84-2.45,1.06-3.76
			c0.18-1.04,0.27-2.02,0.36-3c0.11,0.21,0.22,0.41,0.33,0.62c0.15,0.27,0.33,0.58,0.54,0.92c0.2,0.33,0.42,0.64,0.64,0.91
			c1,1.28,2.12,2.21,3.36,2.78c1.24,0.57,2.49,0.54,3.76-0.09c0.55-0.31,1.02-0.66,1.4-1.08c0.38-0.41,0.71-0.84,0.97-1.27
			c0.26-0.44,0.47-0.87,0.63-1.3c0.16-0.43,0.27-0.81,0.34-1.14c0.37-1.79,0.5-3.72,0.39-5.76c-0.03-0.47-0.09-0.91-0.12-1.38
			c0.24,0.28,0.51,0.58,0.85,0.93c0.56,0.52,1.23,1.03,2.02,1.53c0.78,0.49,1.65,0.86,2.58,1.1c0.93,0.24,1.93,0.31,2.97,0.21
			c1.05-0.1,2.1-0.48,3.16-1.12c1.01-0.81,1.69-1.93,2.04-3.38c0.35-1.45,0.5-2.99,0.45-4.61c1.13,0.92,2.35,1.48,3.63,1.67
			c1.29,0.19,2.59-0.13,3.9-0.96c0.54-0.37,0.98-0.79,1.31-1.25c0.32-0.46,0.58-0.93,0.77-1.41c0.19-0.48,0.32-0.93,0.39-1.36
			c0.07-0.43,0.12-0.81,0.14-1.15c0.18-1.96,0.08-3.92-0.31-5.9C312.62,188.29,312.16,186.34,311.61,184.41z M299.16,201.03
			c-0.07,0.79-0.24,1.36-0.49,1.7c-0.58,0.75-1.16,1.06-1.75,0.91c-0.59-0.15-1.14-0.48-1.65-1c-0.38-0.35-0.73-0.72-1.06-1.12
			c-0.33-0.41-0.57-0.77-0.73-1.08c-0.64-1.06-1.24-2.32-1.8-3.8c-0.56-1.47-0.97-2.95-1.21-4.42c-0.25-1.48-0.25-2.85,0-4.12
			c0.24-1.27,0.85-2.24,1.79-2.93c0.47-0.27,0.94-0.37,1.43-0.31c0.49,0.07,0.93,0.24,1.34,0.52c0.38,1.02,0.78,2.03,1.22,3.02
			c0.43,1,0.88,1.97,1.33,2.93l0.77,1.49c0.18,0.77,0.36,1.66,0.51,2.67c0.15,1.01,0.26,1.99,0.32,2.93
			C299.25,199.38,299.23,200.24,299.16,201.03z"/>
	</g>
</g>
<g id="Layer_3">
</g>
</svg>
